<svg width="1200" height="1200" xmlns="http://www.w3.org/2000/svg" xmlns:xlink="http://www.w3.org/1999/xlink" version="1.1"><g transform="scale(12.653778785098233) translate(-5.0083334181043835, -2.6570341322157116)">                        <g fill="#111111"><g xmlns="http://www.w3.org/2000/svg"><path d="M86.9,17.8c-2.9,0-8.6,3.1-12.2,5.3c0.2-0.8,0.4-1.6,0.4-2.5c0-2.5-1.1-4.8-2.9-6.3c1-1,1.8-2.2,2.2-3.6   c0.2-0.5-0.2-1.1-0.7-1.2c-0.5-0.2-1.1,0.2-1.2,0.7c-0.3,1.2-1.1,2.2-2,3c-1.1-0.6-2.4-0.9-3.7-0.9c-1.3,0-2.6,0.3-3.7,0.9   c-0.9-0.7-1.6-1.7-2-2.8c-0.2-0.5-0.7-0.8-1.3-0.6c-0.5,0.2-0.8,0.7-0.6,1.3c0.4,1.3,1.2,2.4,2.1,3.4c-1.8,1.5-2.9,3.8-2.9,6.3   c0,0.9,0.1,1.7,0.4,2.5c-3.7-2.2-9.4-5.3-12.2-5.3c-4.5,0-8.2,3.7-8.2,8.2s3.7,8.2,8.2,8.2c2.7,0,8-2.8,11.7-5   c-2,3.2-3.1,6.9-3.1,10.8c0,7.7,4.3,14.6,11.1,18.1c0.1,0.1,0.3,0.1,0.5,0.1s0.3,0,0.5-0.1C74,54.6,78.3,47.7,78.3,40   c0-3.9-1.1-7.6-3.1-10.8c3.7,2.2,9,5,11.7,5c4.5,0,8.2-3.7,8.2-8.2S91.4,17.8,86.9,17.8z M57.7,35.5h18c0.3,1.2,0.5,2.5,0.5,3.8   H57.2c0,0-0.1,0-0.1,0C57.2,38,57.4,36.7,57.7,35.5z M57.1,41.3C57.2,41.3,57.2,41.3,57.1,41.3l19.1,0c-0.1,1.3-0.3,2.5-0.7,3.8   H57.8C57.5,43.8,57.2,42.6,57.1,41.3z M58.3,33.5c0.8-2.2,2.1-4.2,3.7-6c1.3,0.9,2.9,1.4,4.7,1.4c1.7,0,3.3-0.5,4.7-1.4   c1.6,1.8,2.9,3.8,3.7,6H58.3z M66.7,14.3c3.5,0,6.3,2.8,6.3,6.3s-2.8,6.3-6.3,6.3s-6.3-2.8-6.3-6.3S63.2,14.3,66.7,14.3z M40.3,26   c0-3.4,2.8-6.2,6.2-6.2c2.7,0,9.5,3.9,13.1,6.2c-3.6,2.3-10.4,6.2-13.1,6.2C43.1,32.2,40.3,29.4,40.3,26z M66.7,56.1   c-3.8-2-6.6-5.3-8.2-9.1h16.4C73.3,50.8,70.5,54,66.7,56.1z M86.9,32.2c-2.7,0-9.5-3.9-13.1-6.2c3.6-2.3,10.4-6.2,13.1-6.2   c3.4,0,6.2,2.8,6.2,6.2S90.3,32.2,86.9,32.2z"/><path d="M31.1,67.3H17.6c-0.4,0-0.7-0.2-0.9-0.5L9.9,55.1c-0.2-0.3-0.2-0.7,0-1l6.7-11.7c0.2-0.3,0.5-0.5,0.9-0.5h13.5   c0.4,0,0.7,0.2,0.9,0.5l6.8,11.7c0.2,0.3,0.2,0.7,0,1l-6.8,11.7C31.8,67.1,31.4,67.3,31.1,67.3z M18.1,65.3h12.3l6.2-10.7   l-6.2-10.7H18.1L12,54.6L18.1,65.3z"/><path d="M51.4,79H37.9c-0.4,0-0.7-0.2-0.9-0.5l-6.8-11.7c-0.2-0.3-0.2-0.7,0-1L37,54.2c0.2-0.3,0.5-0.5,0.9-0.5h13.5   c0.4,0,0.7,0.2,0.9,0.5L59,65.9c0.2,0.3,0.2,0.7,0,1l-6.7,11.7C52.1,78.9,51.7,79,51.4,79z M38.4,77h12.3L57,66.4l-6.2-10.7H38.4   l-6.2,10.7L38.4,77z"/><path d="M31.1,90.7H17.6c-0.4,0-0.7-0.2-0.9-0.5L9.9,78.5c-0.2-0.3-0.2-0.7,0-1l6.7-11.7c0.2-0.3,0.5-0.5,0.9-0.5h13.5   c0.4,0,0.7,0.2,0.9,0.5l6.8,11.7c0.2,0.3,0.2,0.7,0,1l-6.8,11.7C31.8,90.5,31.4,90.7,31.1,90.7z M18.1,88.7h12.3L36.7,78l-6.2-10.7   H18.1L12,78L18.1,88.7z"/></g></g>        </g></svg>